<?xml version="1.0" encoding="UTF-8"?>
<svg width="55px" height="50px" viewBox="0 0 55 50" version="1.1" xmlns="http://www.w3.org/2000/svg" xmlns:xlink="http://www.w3.org/1999/xlink">
    <!-- Generator: Sketch 46 (44423) - http://www.bohemiancoding.com/sketch -->
    <title>bathtub [#48]</title>
    <desc>Created with Sketch.</desc>
    <defs></defs>
    <g id="Page-1" stroke="none" stroke-width="1" fill="none" fill-rule="evenodd">
        <g id="CategoryPage" transform="translate(-217.000000, -132.000000)" fill="#0600FF">
            <g id="CategoryIcons" transform="translate(59.000000, 132.000000)">
                <path d="M195.6035,40.0928245 L189.64425,29.9890229 L201.857,29.9890229 L195.6035,40.0928245 Z M179.33175,42.4844491 L185.05175,32.7805011 L190.7745,42.4844491 L179.33175,42.4844491 Z M174.41475,40.2352724 L168.07325,29.9890229 L180.45925,29.9890229 L174.41475,40.2352724 Z M210.25,24.9908524 L189.64425,24.9908524 L169,24.9908524 L169,7.31982067 C169,5.94032561 170.232,4.82073543 171.75,4.82073543 C173.268,4.82073543 174.5,5.94032561 174.5,7.31982067 L174.5,9.81890591 C174.5,11.198401 175.732,12.3179911 177.25,12.3179911 C178.768,12.3179911 180,11.198401 180,9.81890591 L180,4.82073543 C180,2.05924624 177.536,0 174.5,0 L169,0 C165.96125,0 163.5,2.05924624 163.5,4.82073543 L163.5,24.9908524 L161.762,24.9908524 L160.75,24.9908524 C159.232,24.9908524 158,26.1079435 158,27.4899376 C158,28.8694327 159.232,29.9890229 160.75,29.9890229 L161.762,29.9890229 L171.3375,45.0385142 L170.4905,46.265565 C169.77275,47.4826196 170.276,48.8921036 171.61525,49.5443649 C172.9545,50.1966261 174.621,50.10416 175.33875,48.8871055 L176.38375,47.4826196 L193.71975,47.4826196 L194.76475,48.8346247 C195.4825,50.0516792 197.149,50.3015877 198.48825,49.6493265 C199.8275,48.9970652 200.33075,47.377658 199.613,46.1631025 L198.6835,44.9485471 L208.16825,29.9890229 L210.25,29.9890229 C211.768,29.9890229 213,28.8694327 213,27.4899376 C213,26.1079435 211.768,24.9908524 210.25,24.9908524 L210.25,24.9908524 Z" id="bathtub-[#48]"></path>
            </g>
        </g>
    </g>
</svg>