<?xml version="1.0" encoding="UTF-8"?>
<svg width="46px" height="50px" viewBox="0 0 46 50" version="1.1" xmlns="http://www.w3.org/2000/svg" xmlns:xlink="http://www.w3.org/1999/xlink">
    <!-- Generator: Sketch 46 (44423) - http://www.bohemiancoding.com/sketch -->
    <title>moon [#114]</title>
    <desc>Created with Sketch.</desc>
    <defs></defs>
    <g id="Page-1" stroke="none" stroke-width="1" fill="none" fill-rule="evenodd">
        <g id="CategoryPage" transform="translate(-386.000000, -132.000000)" fill="#0600FF">
            <g id="CategoryIcons" transform="translate(59.000000, 132.000000)">
                <path d="M350.075005,45.3846154 C344.121672,45.3846154 338.789098,42.2470283 335.433333,37.3660581 C350.606429,40.7699256 364.21732,26.0039231 361.088327,9.23076923 C365.53901,12.9109655 368.4,18.7590862 368.4,25.2879805 C368.4,36.3687626 360.178949,45.3846154 350.075005,45.3846154 M351.404404,0 C354.774975,3.42342342 356.883884,8.3008008 356.883884,13.7137137 C356.883884,30.8108108 337.5998,38.8563564 327,26.524024 C327.736737,39.6246246 337.74024,50 349.976977,50 C362.692593,50 373,38.7962963 373,24.974975 C373,11.6741742 363.454655,0.800800801 351.404404,0" id="moon-[#114]"></path>
            </g>
        </g>
    </g>
</svg>