<?xml version="1.0" encoding="UTF-8"?>
<svg width="130px" height="36px" viewBox="0 0 130 36" version="1.1" xmlns="http://www.w3.org/2000/svg" xmlns:xlink="http://www.w3.org/1999/xlink">
    <!-- Generator: Sketch 45.2 (43514) - http://www.bohemiancoding.com/sketch -->
    <title>DETAILBUTTON-amazon</title>
    <desc>Created with Sketch.</desc>
    <defs>
        <rect id="path-1" x="0" y="0" width="130" height="36" rx="18"></rect>
    </defs>
    <g id="Symbols" stroke="none" stroke-width="1" fill="none" fill-rule="evenodd">
        <g id="DETAILBUTTON-amazon">
            <g id="DETAIL-BUTTON">
                <g id="Rectangle-2">
                    <use fill="#4EFFC2" fill-rule="evenodd" xlink:href="#path-1"></use>
                    <rect stroke-opacity="0.495980525" stroke="#33E5B2" stroke-width="1" x="0.5" y="0.5" width="129" height="35" rx="17.5"></rect>
                </g>
                <text id="See-details-+" font-family="Roboto-Regular, Roboto" font-size="13" font-weight="normal" letter-spacing="0.25999999" fill-opacity="0.87" fill="#000000">
                    <tspan x="30" y="23">See details </tspan>
                    <tspan x="99.5926561" y="23">+</tspan>
                </text>
                <path d="M21.444864,22.3046879 C21.68281,22.2429497 22.2343846,22.1440488 22.4686979,22.1955971 C22.7986739,22.2249677 22.997265,22.2795131 23.0632602,22.3592333 C23.2031216,22.5666256 22.9936322,23.2936975 22.8979694,23.5304604 C22.8138104,23.7390515 22.4196555,24.4079816 22.2156153,24.4079816 C22.1532529,24.4079816 22.106027,24.3624273 22.1381164,24.2773125 C22.8870711,22.5336586 22.5522514,22.5798124 21.444864,22.6751169 C21.3019753,22.6924995 20.7776464,22.7973945 20.8394034,22.6751169 C20.8394034,22.5306616 21.3001589,22.3418507 21.444864,22.3046879 M16.2270046,19.1332638 C16.2270046,19.4167799 16.298449,19.6439524 16.4413377,19.8141819 C16.850629,20.3020933 17.5977674,20.040755 17.911396,19.460536 C18.0839523,19.1644326 18.2631686,18.5860118 18.2631686,17.8361627 C17.657708,17.8361627 17.4651715,17.8655333 17.2453893,17.9236751 C16.5993629,18.1052932 16.2270046,18.5086892 16.2270046,19.1332638 M14.3337294,19.3514453 C14.3337294,18.3300681 14.8834876,17.6143848 15.7317379,17.2589407 C16.4806926,16.9430571 17.5142138,16.8567435 18.2631686,16.8117885 C18.2631686,15.9138877 18.1402601,15.1988038 17.1957416,15.1988038 C16.8924058,15.1988038 16.3505186,15.535067 16.2270046,16.0955058 C16.1973371,16.2405606 16.1240763,16.3448561 16.006617,16.3664345 L14.7405989,16.2243768 C14.5874173,16.1884128 14.5280822,16.1044968 14.5644098,15.9594421 C14.8199142,14.6359674 15.9315399,14.0707334 17.1957416,14.0000043 C17.8012022,14.0000043 18.7166586,13.9922121 19.4304966,14.6431602 C20.2018534,15.4073949 20.0795504,16.3700309 20.0795504,18.8611363 C20.0795504,19.4593372 20.0886323,19.5168796 20.4979236,20.0485472 C20.5802663,20.1708248 20.5875318,20.2871083 20.4676506,20.3758195 C19.8585572,20.8990955 19.5273703,21.1820121 19.4759062,21.2257683 C19.3875089,21.2911029 19.2803424,21.2982957 19.1556175,21.2473467 C18.6137303,20.7876071 18.7439043,20.8151795 18.4066627,20.3973979 C17.7230977,21.1346596 17.1860542,21.3348591 16.2712032,21.3348591 C15.183796,21.3348591 14.3337294,20.662932 14.3337294,19.3514453 M11.1962326,22.4461462 C13.0307782,23.499891 15.0269817,24.0267634 17.1848433,24.0267634 C18.6228122,24.0267634 20.0432227,23.7612293 21.444864,23.2307605 C21.6573807,23.1468446 21.8814011,22.9832084 22.0115751,23.1654259 C22.0739375,23.2529383 22.0539574,23.3326585 21.951029,23.4051858 C20.5929809,24.3762135 18.7003111,24.8982906 17.0522474,24.8982906 C14.7206187,24.8982906 12.6463107,24.0417484 11.0642422,22.6313608 C10.9231698,22.5156766 11.0357855,22.3454471 11.1962326,22.4461462" id="amazon-[#160]" fill="#2C2C2B"></path>
            </g>
        </g>
    </g>
</svg>