<?xml version="1.0" encoding="UTF-8"?>
<svg width="34px" height="50px" viewBox="0 0 34 50" version="1.1" xmlns="http://www.w3.org/2000/svg" xmlns:xlink="http://www.w3.org/1999/xlink">
    <!-- Generator: Sketch 46 (44423) - http://www.bohemiancoding.com/sketch -->
    <title>refrigerator_round [#694]</title>
    <desc>Created with Sketch.</desc>
    <defs></defs>
    <g id="Page-1" stroke="none" stroke-width="1" fill="none" fill-rule="evenodd" fill-opacity="0.55">
        <g id="CategoryPage" transform="translate(-736.000000, -132.000000)" fill="#575454">
            <g id="CategoryIcons" transform="translate(59.000000, 132.000000)">
                <path d="M691.166667,25 L691.166667,25 C691.166667,26.38 689.897333,27.5 688.333333,27.5 C686.769333,27.5 685.5,26.38 685.5,25 C685.5,23.62 686.769333,22.5 688.333333,22.5 C689.897333,22.5 691.166667,23.62 691.166667,25 L691.166667,25 Z M682.666667,15 L682.666667,7.5 C682.666667,6.12 683.936,5 685.5,5 L702.5,5 C704.064,5 705.333333,6.12 705.333333,7.5 L705.333333,15 L682.666667,15 Z M702.5,40 L685.5,40 C683.936,40 682.666667,38.88 682.666667,37.5 L682.666667,20 L705.333333,20 L705.333333,37.5 C705.333333,38.88 704.064,40 702.5,40 L702.5,40 Z M682.666667,0 C679.535833,0 677,2.2375 677,5 L677,15 L677,20 L677,40 C677,42.7625 679.535833,45 682.666667,45 L682.666667,47.5 C682.666667,48.88 683.936,50 685.5,50 C687.064,50 688.333333,48.88 688.333333,47.5 L688.333333,45 L699.666667,45 L699.666667,47.5 C699.666667,48.88 700.936,50 702.5,50 C704.064,50 705.333333,48.88 705.333333,47.5 L705.333333,45 C708.464167,45 711,42.7625 711,40 L711,20 L711,15 L711,5 C711,2.2375 708.464167,0 705.333333,0 L682.666667,0 Z" id="refrigerator_round-[#694]"></path>
            </g>
        </g>
    </g>
</svg>