<?xml version="1.0" encoding="UTF-8"?>
<svg width="20px" height="20px" viewBox="0 0 20 20" version="1.1" xmlns="http://www.w3.org/2000/svg" xmlns:xlink="http://www.w3.org/1999/xlink">
    <!-- Generator: Sketch 45.2 (43514) - http://www.bohemiancoding.com/sketch -->
    <title>linkedin [#161]</title>
    <desc>Created with Sketch.</desc>
    <defs></defs>
    <g id="Page-1" stroke="none" stroke-width="1" fill="none" fill-rule="evenodd">
        <g id="Landing" transform="translate(-695.000000, -2927.000000)" fill="#FFFFFF">
            <g id="Footer" transform="translate(0.000000, 2808.000000)">
                <g id="Contact-Us" transform="translate(653.000000, 52.000000)">
                    <g id="SocialMedia" transform="translate(1.000000, 67.000000)">
                        <path d="M61,20 L57,20 L57,13.001 C57,11.081 56.153,10.01 54.634,10.01 C52.981,10.01 52,11.126 52,13.001 L52,20 L48,20 L48,7 L52,7 L52,8.462 C52,8.462 53.255,6.26 56.083,6.26 C58.912,6.26 61,7.986 61,11.558 L61,20 L61,20 Z M43.442,4.921 C42.093,4.921 41,3.819 41,2.46 C41,1.102 42.093,0 43.442,0 C44.79,0 45.883,1.102 45.883,2.46 C45.884,3.819 44.79,4.921 43.442,4.921 L43.442,4.921 Z M41,20 L46,20 L46,7 L41,7 L41,20 Z" id="linkedin-[#161]"></path>
                    </g>
                </g>
            </g>
        </g>
    </g>
</svg>