<?xml version="1.0" encoding="UTF-8"?>
<svg width="37px" height="50px" viewBox="0 0 37 50" version="1.1" xmlns="http://www.w3.org/2000/svg" xmlns:xlink="http://www.w3.org/1999/xlink">
    <!-- Generator: Sketch 46 (44423) - http://www.bohemiancoding.com/sketch -->
    <title>simple_car [#733]</title>
    <desc>Created with Sketch.</desc>
    <defs></defs>
    <g id="Page-1" stroke="none" stroke-width="1" fill="none" fill-rule="evenodd">
        <g id="CategoryPage" transform="translate(-890.000000, -132.000000)" fill="#0600FF">
            <g id="CategoryIcons" transform="translate(59.000000, 132.000000)">
                <path d="M858.75,30 L857.159,30 L854.125,30 L844.875,30 L843.284,30 L840.25,30 L840.25,25 L840.25,20 L840.25,5 L858.75,5 L858.75,20 L858.75,25 L858.75,30 Z M858.75,40 L863.375,40 L863.375,35 L858.75,35 L858.75,40 Z M844.875,40 L854.125,40 L854.125,35 L844.875,35 L844.875,40 Z M835.625,40 L840.25,40 L840.25,35 L835.625,35 L835.625,40 Z M868,25 L868,20 L863.375,20 L863.375,5 L863.375,0 L835.625,0 L835.625,5 L835.625,20 L831,20 L831,25 L835.625,25 L835.625,30 L831,30 L831,35 L831,40 L831,45 L831,50 L835.625,50 L835.625,45 L840.25,45 L844.875,45 L854.125,45 L858.75,45 L863.375,45 L863.375,50 L868,50 L868,45 L868,40 L868,35 L868,30 L863.375,30 L863.375,25 L868,25 Z" id="simple_car-[#733]"></path>
            </g>
        </g>
    </g>
</svg>