<?xml version="1.0" encoding="UTF-8"?>
<svg width="46px" height="50px" viewBox="0 0 46 50" version="1.1" xmlns="http://www.w3.org/2000/svg" xmlns:xlink="http://www.w3.org/1999/xlink">
    <!-- Generator: Sketch 46 (44423) - http://www.bohemiancoding.com/sketch -->
    <title>charger_round [#697]</title>
    <desc>Created with Sketch.</desc>
    <defs></defs>
    <g id="Page-1" stroke="none" stroke-width="1" fill="none" fill-rule="evenodd">
        <g id="CategoryPage" transform="translate(-555.000000, -132.000000)" fill="#0600FF">
            <g id="CategoryIcons" transform="translate(59.000000, 132.000000)">
                <path d="M532.7287,20.14 C532.7287,27.99 527.1489,34.3675 520.0764,35 L517.7741,35 C510.7039,34.3675 505.1287,28.0275 505.1287,20.18 C505.1287,20.0775 505.1402,20 505.1425,20 L532.7149,20 C532.7149,20 532.7287,20.04 532.7287,20.14 M539.7,15 L528.2,15 L528.2,2.5 C528.2,1.1175 527.1719,0 525.9,0 C524.6304,0 523.6,1.1175 523.6,2.5 L523.6,15 L514.4,15 L514.4,2.5 C514.4,1.1175 513.3719,0 512.1,0 C510.8304,0 509.8,1.1175 509.8,2.5 L509.8,15 L498.3,15 C497.0304,15 496,16.1175 496,17.5 C496,18.88 497.0304,20 498.3,20 L500.5425,20 C500.5402,20 500.5655,20.04 500.5655,20.14 C500.5655,30.3375 507.5,38.6675 516.7,39.89 L516.7,50 L521.3,50 L521.3,39.89 C530.5,38.6725 537.3655,30.3775 537.3655,20.18 C537.3655,20.0775 537.3172,20 537.3172,20 L539.7,20 C540.9719,20 542,18.88 542,17.5 C542,16.1175 540.9719,15 539.7,15" id="charger_round-[#697]"></path>
            </g>
        </g>
    </g>
</svg>