<?xml version="1.0" encoding="UTF-8"?>
<svg width="50px" height="33px" viewBox="0 0 50 33" version="1.1" xmlns="http://www.w3.org/2000/svg" xmlns:xlink="http://www.w3.org/1999/xlink">
    <!-- Generator: Sketch 46 (44423) - http://www.bohemiancoding.com/sketch -->
    <title>emoji_surprised_simple_glasses [#474]</title>
    <desc>Created with Sketch.</desc>
    <defs></defs>
    <g id="Page-1" stroke="none" stroke-width="1" fill="none" fill-rule="evenodd">
        <g id="CategoryPage" transform="translate(-1050.000000, -140.000000)" fill="#0600FF">
            <g id="CategoryIcons" transform="translate(59.000000, 132.000000)">
                <path d="M1036,13.697022 L1026,13.697022 L1026,22.242555 C1026,23.8149331 1027.12,25.091066 1028.5,25.091066 L1036,25.091066 L1036,13.697022 Z M1006,13.697022 L996,13.697022 L996,25.091066 L1003.5,25.091066 C1004.88,25.091066 1006,23.8149331 1006,22.242555 L1006,13.697022 Z M1041,8 L1041,30.788088 L1026,30.788088 C1023.2375,30.788088 1021,28.2386707 1021,25.091066 L1021,13.697022 L1011,13.697022 L1011,25.091066 C1011,28.2386707 1008.7625,30.788088 1006,30.788088 L991,30.788088 L991,8 L1011,8 L1021,8 L1041,8 Z M1021,35.302978 C1021,38.4505826 1018.7625,41 1016,41 C1013.2375,41 1011,38.4505826 1011,35.302978 C1011,32.1553733 1013.2375,29.605956 1016,29.605956 C1018.7625,29.605956 1021,32.1553733 1021,35.302978 L1021,35.302978 Z" id="emoji_surprised_simple_glasses-[#474]"></path>
            </g>
        </g>
    </g>
</svg>