<?xml version="1.0" encoding="UTF-8"?>
<svg width="28px" height="25px" viewBox="0 0 28 25" version="1.1" xmlns="http://www.w3.org/2000/svg" xmlns:xlink="http://www.w3.org/1999/xlink">
    <!-- Generator: Sketch 45.2 (43514) - http://www.bohemiancoding.com/sketch -->
    <title>amazon [#160]</title>
    <desc>Created with Sketch.</desc>
    <defs></defs>
    <g id="Symbols" stroke="none" stroke-width="1" fill="none" fill-rule="evenodd">
        <g id="amazon-[#160]" fill="#31363B">
            <path d="M24.1499752,19.0504368 C24.7001394,18.9088133 25.9754565,18.6819407 26.5172212,18.8001894 C27.2801716,18.8675637 27.7393417,18.9926874 27.8919318,19.1755605 C28.2153107,19.6513056 27.7309423,21.3191632 27.5097567,21.8622826 C27.3151693,22.3407776 26.4038286,23.8752617 25.9320593,23.8752617 C25.7878687,23.8752617 25.6786758,23.7707628 25.752871,23.5755148 C27.4845583,19.5756814 26.7104087,19.6815553 24.1499752,19.900178 C23.8195967,19.9400526 22.6072756,20.1806751 22.7500663,19.900178 C22.7500663,19.5688064 23.815397,19.1356859 24.1499752,19.0504368 M12.0855602,11.7753874 C12.0855602,12.4257557 12.2507494,12.9468752 12.5811279,13.3373712 C13.5274663,14.4566096 15.254954,13.8571158 15.9801068,12.5261296 C16.3790808,11.8468867 16.7934539,10.5200255 16.7934539,8.79991833 C15.3935449,8.79991833 14.9483739,8.86729263 14.440207,9.00066625 C12.9465041,9.41728692 12.0855602,10.3426523 12.0855602,11.7753874 M7.70804496,12.2758822 C7.70804496,9.93290656 8.97916226,8.29117362 10.9404347,7.47580709 C12.672122,6.75118962 15.0617665,6.55319168 16.7934539,6.45006775 C16.7934539,4.39033915 16.5092723,2.7499812 14.3254144,2.7499812 C13.6240601,2.7499812 12.3711416,3.52134818 12.0855602,4.80695982 C12.0169646,5.13970637 11.8475756,5.37895388 11.5759933,5.42845337 L8.64878375,5.10258175 C8.2946068,5.02008261 8.15741572,4.82758461 8.24141026,4.49483807 C8.83217182,1.45886961 11.4024046,0.162258086 14.3254144,9.77189202e-06 C15.7253234,9.77189202e-06 17.8419856,-0.0178650424 19.4924783,1.47536944 C21.2759622,3.22847623 20.9931806,5.43670328 20.9931806,11.1511439 C20.9931806,12.5233796 21.0141793,12.6553783 21.9605177,13.8749906 C22.1509053,14.1554877 22.1677042,14.4222349 21.8905222,14.6257328 C20.4822139,15.8260953 19.7164637,16.4750886 19.5974714,16.5754625 C19.3930847,16.725336 19.1453008,16.7418358 18.8569196,16.624962 C17.6040011,15.570348 17.9049815,15.6335973 17.1252323,14.6752323 C15.5447351,16.3664647 14.3030159,16.8257099 12.1877535,16.8257099 C9.67351709,16.8257099 7.70804496,15.284351 7.70804496,12.2758822 M0.453716929,19.3749334 C4.69544096,21.7921583 9.31094067,23.0007708 14.3002161,23.0007708 C17.6249998,23.0007708 20.9091861,22.3916521 24.1499752,21.1747897 C24.6413433,20.9822917 25.1593096,20.6069206 25.46029,21.0249163 C25.6044806,21.2256642 25.5582836,21.4085373 25.3202991,21.5749106 C22.1803034,23.8023874 17.8041881,25 13.993636,25 C8.60258676,25 3.8064988,23.0351454 0.148536785,19.799804 C-0.177641994,19.5344318 0.0827410653,19.1439358 0.453716929,19.3749334"></path>
        </g>
    </g>
</svg>