<?xml version="1.0" encoding="UTF-8"?>
<svg width="55px" height="50px" viewBox="0 0 55 50" version="1.1" xmlns="http://www.w3.org/2000/svg" xmlns:xlink="http://www.w3.org/1999/xlink">
    <!-- Generator: Sketch 45.2 (43514) - http://www.bohemiancoding.com/sketch -->
    <title>bathtub [#48]</title>
    <desc>Created with Sketch.</desc>
    <defs></defs>
    <g id="Style-Guide" stroke="none" stroke-width="1" fill="none" fill-rule="evenodd">
        <g id="Style-Guide-Desktop" transform="translate(-292.000000, -2971.000000)" fill="#4B55ED">
            <g id="CategoryIcons" transform="translate(149.000000, 2971.000000)">
                <path d="M180.6035,40.0928245 L174.64425,29.9890229 L186.857,29.9890229 L180.6035,40.0928245 Z M164.33175,42.4844491 L170.05175,32.7805011 L175.7745,42.4844491 L164.33175,42.4844491 Z M159.41475,40.2352724 L153.07325,29.9890229 L165.45925,29.9890229 L159.41475,40.2352724 Z M195.25,24.9908524 L174.64425,24.9908524 L154,24.9908524 L154,7.31982067 C154,5.94032561 155.232,4.82073543 156.75,4.82073543 C158.268,4.82073543 159.5,5.94032561 159.5,7.31982067 L159.5,9.81890591 C159.5,11.198401 160.732,12.3179911 162.25,12.3179911 C163.768,12.3179911 165,11.198401 165,9.81890591 L165,4.82073543 C165,2.05924624 162.536,0 159.5,0 L154,0 C150.96125,0 148.5,2.05924624 148.5,4.82073543 L148.5,24.9908524 L146.762,24.9908524 L145.75,24.9908524 C144.232,24.9908524 143,26.1079435 143,27.4899376 C143,28.8694327 144.232,29.9890229 145.75,29.9890229 L146.762,29.9890229 L156.3375,45.0385142 L155.4905,46.265565 C154.77275,47.4826196 155.276,48.8921036 156.61525,49.5443649 C157.9545,50.1966261 159.621,50.10416 160.33875,48.8871055 L161.38375,47.4826196 L178.71975,47.4826196 L179.76475,48.8346247 C180.4825,50.0516792 182.149,50.3015877 183.48825,49.6493265 C184.8275,48.9970652 185.33075,47.377658 184.613,46.1631025 L183.6835,44.9485471 L193.16825,29.9890229 L195.25,29.9890229 C196.768,29.9890229 198,28.8694327 198,27.4899376 C198,26.1079435 196.768,24.9908524 195.25,24.9908524 L195.25,24.9908524 Z" id="bathtub-[#48]"></path>
            </g>
        </g>
    </g>
</svg>