<?xml version="1.0" encoding="UTF-8"?>
<svg width="47px" height="50px" viewBox="0 0 47 50" version="1.1" xmlns="http://www.w3.org/2000/svg" xmlns:xlink="http://www.w3.org/1999/xlink">
    <!-- Generator: Sketch 45.2 (43514) - http://www.bohemiancoding.com/sketch -->
    <title>charger_round [#697]</title>
    <desc>Created with Sketch.</desc>
    <defs></defs>
    <g id="Style-Guide" stroke="none" stroke-width="1" fill="none" fill-rule="evenodd">
        <g id="Style-Guide-Desktop" transform="translate(-633.000000, -2971.000000)" fill="#4B55ED">
            <g id="CategoryIcons" transform="translate(149.000000, 2971.000000)">
                <path d="M520.851538,20.14 C520.851538,27.99 515.253077,34.3675 508.156923,35 L505.846923,35 C498.753077,34.3675 493.159231,28.0275 493.159231,20.18 C493.159231,20.0775 493.170769,20 493.173077,20 L520.837692,20 C520.837692,20 520.851538,20.04 520.851538,20.14 M527.846154,15 L516.307692,15 L516.307692,2.5 C516.307692,1.1175 515.276154,0 514,0 C512.726154,0 511.692308,1.1175 511.692308,2.5 L511.692308,15 L502.461538,15 L502.461538,2.5 C502.461538,1.1175 501.43,0 500.153846,0 C498.88,0 497.846154,1.1175 497.846154,2.5 L497.846154,15 L486.307692,15 C485.033846,15 484,16.1175 484,17.5 C484,18.88 485.033846,20 486.307692,20 L488.557692,20 C488.555385,20 488.580769,20.04 488.580769,20.14 C488.580769,30.3375 495.538462,38.6675 504.769231,39.89 L504.769231,50 L509.384615,50 L509.384615,39.89 C518.615385,38.6725 525.503846,30.3775 525.503846,20.18 C525.503846,20.0775 525.455385,20 525.455385,20 L527.846154,20 C529.122308,20 530.153846,18.88 530.153846,17.5 C530.153846,16.1175 529.122308,15 527.846154,15" id="charger_round-[#697]"></path>
            </g>
        </g>
    </g>
</svg>