<?xml version="1.0" encoding="UTF-8"?>
<svg width="50px" height="34px" viewBox="0 0 50 34" version="1.1" xmlns="http://www.w3.org/2000/svg" xmlns:xlink="http://www.w3.org/1999/xlink">
    <!-- Generator: Sketch 45.2 (43514) - http://www.bohemiancoding.com/sketch -->
    <title>emoji_surprised_simple_glasses [#474]</title>
    <desc>Created with Sketch.</desc>
    <defs></defs>
    <g id="Style-Guide" stroke="none" stroke-width="1" fill="none" fill-rule="evenodd">
        <g id="Style-Guide-Desktop" transform="translate(-1149.000000, -2982.000000)" fill="#4B55ED">
            <g id="CategoryIcons" transform="translate(149.000000, 2971.000000)">
                <path d="M1045,16.7545677 L1035,16.7545677 L1035,25.3864192 C1035,26.9746799 1036.12,28.2637031 1037.5,28.2637031 L1045,28.2637031 L1045,16.7545677 Z M1015,16.7545677 L1005,16.7545677 L1005,28.2637031 L1012.5,28.2637031 C1013.88,28.2637031 1015,26.9746799 1015,25.3864192 L1015,16.7545677 Z M1050,11 L1050,34.0182708 L1035,34.0182708 C1032.2375,34.0182708 1030,31.4431017 1030,28.2637031 L1030,16.7545677 L1020,16.7545677 L1020,28.2637031 C1020,31.4431017 1017.7625,34.0182708 1015,34.0182708 L1000,34.0182708 L1000,11 L1020,11 L1030,11 L1050,11 Z M1030,38.5787656 C1030,41.7581643 1027.7625,44.3333333 1025,44.3333333 C1022.2375,44.3333333 1020,41.7581643 1020,38.5787656 C1020,35.399367 1022.2375,32.824198 1025,32.824198 C1027.7625,32.824198 1030,35.399367 1030,38.5787656 L1030,38.5787656 Z" id="emoji_surprised_simple_glasses-[#474]"></path>
            </g>
        </g>
    </g>
</svg>