<?xml version="1.0" encoding="UTF-8"?>
<svg width="24px" height="24px" viewBox="0 0 24 24" version="1.1" xmlns="http://www.w3.org/2000/svg" xmlns:xlink="http://www.w3.org/1999/xlink">
    <!-- Generator: Sketch 45.2 (43514) - http://www.bohemiancoding.com/sketch -->
    <title>Material/Icons black/forum</title>
    <desc>Created with Sketch.</desc>
    <defs>
        <path d="M21.001,6 L19,6 L19,15 L5.999,15 L5.999,17 C5.999,17.552 6.449,18 7,18 L17.999,18 L22,22 L22,7 C22,6.447 21.552,6 21.001,6 M16.001,1.999 L3,1.999 C2.448,1.999 2,2.447 2,3 L2,17 L5.999,13 L16.001,13 C16.552,13 17,12.552 17,11.999 L17,3 C17,2.447 16.552,1.999 16.001,1.999" id="path-1"></path>
        <filter x="-32.5%" y="-17.5%" width="155.0%" height="155.0%" filterUnits="objectBoundingBox" id="filter-2">
            <feOffset dx="-1" dy="2" in="SourceAlpha" result="shadowOffsetOuter1"></feOffset>
            <feGaussianBlur stdDeviation="1.5" in="shadowOffsetOuter1" result="shadowBlurOuter1"></feGaussianBlur>
            <feColorMatrix values="0 0 0 0 0.329411765   0 0 0 0 0.329411765   0 0 0 0 0.329411765  0 0 0 0.5 0" type="matrix" in="shadowBlurOuter1"></feColorMatrix>
        </filter>
    </defs>
    <g id="Symbols" stroke="none" stroke-width="1" fill="none" fill-rule="evenodd">
        <g id="Material/Icons-black/forum">
            <g id="Fill-6">
                <use fill="black" fill-opacity="1" filter="url(#filter-2)" xlink:href="#path-1"></use>
                <use fill="#FFFFFF" fill-rule="evenodd" xlink:href="#path-1"></use>
            </g>
        </g>
    </g>
</svg>