<?xml version="1.0" encoding="UTF-8"?>
<svg width="47px" height="50px" viewBox="0 0 47 50" version="1.1" xmlns="http://www.w3.org/2000/svg" xmlns:xlink="http://www.w3.org/1999/xlink">
    <!-- Generator: Sketch 45.2 (43514) - http://www.bohemiancoding.com/sketch -->
    <title>moon [#114]</title>
    <desc>Created with Sketch.</desc>
    <defs></defs>
    <g id="Style-Guide" stroke="none" stroke-width="1" fill="none" fill-rule="evenodd">
        <g id="Style-Guide-Desktop" transform="translate(-465.000000, -2971.000000)" fill="#4B55ED">
            <g id="CategoryIcons" transform="translate(149.000000, 2971.000000)">
                <path d="M339.152179,45.3846154 C333.178935,45.3846154 327.828527,42.2470283 324.461538,37.3660581 C339.685381,40.7699256 353.341792,26.0039231 350.202335,9.23076923 C354.667903,12.9109655 357.538462,18.7590862 357.538462,25.2879805 C357.538462,36.3687626 349.289915,45.3846154 339.152179,45.3846154 M340.486024,0 C343.867868,3.42342342 345.98383,8.3008008 345.98383,13.7137137 C345.98383,30.8108108 326.635251,38.8563564 316,26.524024 C316.739201,39.6246246 326.776161,50 339.053823,50 C351.811966,50 362.153846,38.7962963 362.153846,24.974975 C362.153846,11.6741742 352.576577,0.800800801 340.486024,0" id="moon-[#114]"></path>
            </g>
        </g>
    </g>
</svg>