<?xml version="1.0" encoding="UTF-8"?>
<svg width="35px" height="50px" viewBox="0 0 35 50" version="1.1" xmlns="http://www.w3.org/2000/svg" xmlns:xlink="http://www.w3.org/1999/xlink">
    <!-- Generator: Sketch 45.2 (43514) - http://www.bohemiancoding.com/sketch -->
    <title>refrigerator_round [#694]</title>
    <desc>Created with Sketch.</desc>
    <defs></defs>
    <g id="Style-Guide" stroke="none" stroke-width="1" fill="none" fill-rule="evenodd">
        <g id="Style-Guide-Desktop" transform="translate(-825.000000, -2971.000000)" fill="#4B55ED">
            <g id="CategoryIcons" transform="translate(149.000000, 2971.000000)">
                <path d="M690.285714,25 L690.285714,25 C690.285714,26.38 689.005714,27.5 687.428571,27.5 C685.851429,27.5 684.571429,26.38 684.571429,25 C684.571429,23.62 685.851429,22.5 687.428571,22.5 C689.005714,22.5 690.285714,23.62 690.285714,25 L690.285714,25 Z M681.714286,15 L681.714286,7.5 C681.714286,6.12 682.994286,5 684.571429,5 L701.714286,5 C703.291429,5 704.571429,6.12 704.571429,7.5 L704.571429,15 L681.714286,15 Z M701.714286,40 L684.571429,40 C682.994286,40 681.714286,38.88 681.714286,37.5 L681.714286,20 L704.571429,20 L704.571429,37.5 C704.571429,38.88 703.291429,40 701.714286,40 L701.714286,40 Z M681.714286,0 C678.557143,0 676,2.2375 676,5 L676,15 L676,20 L676,40 C676,42.7625 678.557143,45 681.714286,45 L681.714286,47.5 C681.714286,48.88 682.994286,50 684.571429,50 C686.148571,50 687.428571,48.88 687.428571,47.5 L687.428571,45 L698.857143,45 L698.857143,47.5 C698.857143,48.88 700.137143,50 701.714286,50 C703.291429,50 704.571429,48.88 704.571429,47.5 L704.571429,45 C707.728571,45 710.285714,42.7625 710.285714,40 L710.285714,20 L710.285714,15 L710.285714,5 C710.285714,2.2375 707.728571,0 704.571429,0 L681.714286,0 Z" id="refrigerator_round-[#694]"></path>
            </g>
        </g>
    </g>
</svg>