<?xml version="1.0" encoding="UTF-8"?>
<svg width="38px" height="50px" viewBox="0 0 38 50" version="1.1" xmlns="http://www.w3.org/2000/svg" xmlns:xlink="http://www.w3.org/1999/xlink">
    <!-- Generator: Sketch 45.2 (43514) - http://www.bohemiancoding.com/sketch -->
    <title>simple_car [#733]</title>
    <desc>Created with Sketch.</desc>
    <defs></defs>
    <g id="Style-Guide" stroke="none" stroke-width="1" fill="none" fill-rule="evenodd">
        <g id="Style-Guide-Desktop" transform="translate(-1004.000000, -2974.000000)" fill="#4B55ED">
            <g id="CategoryIcons" transform="translate(149.000000, 2971.000000)">
                <path d="M882.857143,33 L881.26,33 L878.214286,33 L868.928571,33 L867.331429,33 L864.285714,33 L864.285714,28 L864.285714,23 L864.285714,8 L882.857143,8 L882.857143,23 L882.857143,28 L882.857143,33 Z M882.857143,43 L887.5,43 L887.5,38 L882.857143,38 L882.857143,43 Z M868.928571,43 L878.214286,43 L878.214286,38 L868.928571,38 L868.928571,43 Z M859.642857,43 L864.285714,43 L864.285714,38 L859.642857,38 L859.642857,43 Z M892.142857,28 L892.142857,23 L887.5,23 L887.5,8 L887.5,3 L859.642857,3 L859.642857,8 L859.642857,23 L855,23 L855,28 L859.642857,28 L859.642857,33 L855,33 L855,38 L855,43 L855,48 L855,53 L859.642857,53 L859.642857,48 L864.285714,48 L868.928571,48 L878.214286,48 L882.857143,48 L887.5,48 L887.5,53 L892.142857,53 L892.142857,48 L892.142857,43 L892.142857,38 L892.142857,33 L887.5,33 L887.5,28 L892.142857,28 Z" id="simple_car-[#733]"></path>
            </g>
        </g>
    </g>
</svg>